<mxfile host="app.diagrams.net" modified="2023-01-13T15:11:50.967Z" agent="5.0 (Windows NT 10.0; Win64; x64) AppleWebKit/537.36 (KHTML, like Gecko) Chrome/108.0.0.0 Safari/537.36 Edg/108.0.1462.54" version="20.8.3" etag="V5qvmYCGEda8B0QqXeIT" type="github">
  <diagram id="PR9pS0y9tIhNkCI7RKdT" name="第 1 页">
    <mxGraphModel dx="3831" dy="1288" grid="1" gridSize="10" guides="1" tooltips="1" connect="1" arrows="1" fold="1" page="1" pageScale="1" pageWidth="827" pageHeight="1169" math="0" shadow="0">
      <root>
        <mxCell id="0" />
        <mxCell id="1" parent="0" />
        <mxCell id="kZfyNyiyons217a6snOg-15" style="edgeStyle=orthogonalEdgeStyle;rounded=0;orthogonalLoop=1;jettySize=auto;html=1;exitX=1;exitY=0.5;exitDx=0;exitDy=0;entryX=0;entryY=0.722;entryDx=0;entryDy=0;entryPerimeter=0;" edge="1" parent="1" source="kZfyNyiyons217a6snOg-1" target="kZfyNyiyons217a6snOg-9">
          <mxGeometry relative="1" as="geometry" />
        </mxCell>
        <mxCell id="kZfyNyiyons217a6snOg-1" value="Student" style="rounded=0;whiteSpace=wrap;html=1;fillColor=#ffe6cc;strokeColor=#d79b00;" vertex="1" parent="1">
          <mxGeometry x="90" y="340" width="100" height="50" as="geometry" />
        </mxCell>
        <mxCell id="kZfyNyiyons217a6snOg-7" value="" style="swimlane;childLayout=stackLayout;horizontal=1;startSize=30;horizontalStack=0;rounded=1;fontSize=14;fontStyle=0;strokeWidth=2;resizeParent=0;resizeLast=1;shadow=0;dashed=0;align=center;fillColor=#d5e8d4;strokeColor=#82b366;" vertex="1" parent="1">
          <mxGeometry x="330" y="270" width="160" height="120" as="geometry" />
        </mxCell>
        <mxCell id="kZfyNyiyons217a6snOg-9" value="Library System" style="text;html=1;align=center;verticalAlign=middle;resizable=0;points=[];autosize=1;strokeColor=none;fillColor=none;" vertex="1" parent="kZfyNyiyons217a6snOg-7">
          <mxGeometry y="30" width="160" height="90" as="geometry" />
        </mxCell>
        <mxCell id="kZfyNyiyons217a6snOg-14" style="edgeStyle=orthogonalEdgeStyle;rounded=0;orthogonalLoop=1;jettySize=auto;html=1;exitX=1;exitY=0.5;exitDx=0;exitDy=0;entryX=0.003;entryY=0.262;entryDx=0;entryDy=0;entryPerimeter=0;" edge="1" parent="1" source="kZfyNyiyons217a6snOg-10" target="kZfyNyiyons217a6snOg-9">
          <mxGeometry relative="1" as="geometry">
            <Array as="points">
              <mxPoint x="260" y="255" />
              <mxPoint x="260" y="324" />
            </Array>
          </mxGeometry>
        </mxCell>
        <mxCell id="kZfyNyiyons217a6snOg-10" value="Librarian" style="rounded=0;whiteSpace=wrap;html=1;fillColor=#ffe6cc;strokeColor=#d79b00;" vertex="1" parent="1">
          <mxGeometry x="90" y="230" width="100" height="50" as="geometry" />
        </mxCell>
        <mxCell id="kZfyNyiyons217a6snOg-11" value="&lt;div style=&quot;text-align: center;&quot;&gt;&lt;span style=&quot;background-color: initial; white-space: pre;&quot;&gt;	&lt;/span&gt;&lt;span style=&quot;background-color: initial;&quot;&gt;student information&lt;/span&gt;&lt;/div&gt;" style="strokeWidth=2;html=1;shape=mxgraph.flowchart.annotation_1;align=left;pointerEvents=1;" vertex="1" parent="1">
          <mxGeometry x="590" y="230" width="140" height="50" as="geometry" />
        </mxCell>
        <mxCell id="kZfyNyiyons217a6snOg-12" value="&lt;div style=&quot;&quot;&gt;book information&lt;/div&gt;" style="strokeWidth=2;html=1;shape=mxgraph.flowchart.annotation_1;align=center;pointerEvents=1;" vertex="1" parent="1">
          <mxGeometry x="590" y="350" width="140" height="50" as="geometry" />
        </mxCell>
        <mxCell id="kZfyNyiyons217a6snOg-17" style="edgeStyle=orthogonalEdgeStyle;rounded=0;orthogonalLoop=1;jettySize=auto;html=1;exitX=1;exitY=0.5;exitDx=0;exitDy=0;" edge="1" parent="1">
          <mxGeometry relative="1" as="geometry">
            <mxPoint x="490" y="321.4" as="sourcePoint" />
            <mxPoint x="590" y="260" as="targetPoint" />
            <Array as="points">
              <mxPoint x="530" y="321" />
              <mxPoint x="530" y="260" />
              <mxPoint x="580" y="260" />
            </Array>
          </mxGeometry>
        </mxCell>
        <mxCell id="kZfyNyiyons217a6snOg-18" style="edgeStyle=orthogonalEdgeStyle;rounded=0;orthogonalLoop=1;jettySize=auto;html=1;exitX=1;exitY=0.5;exitDx=0;exitDy=0;" edge="1" parent="1">
          <mxGeometry relative="1" as="geometry">
            <mxPoint x="490" y="364.52" as="sourcePoint" />
            <mxPoint x="590" y="365" as="targetPoint" />
            <Array as="points">
              <mxPoint x="570" y="365" />
              <mxPoint x="570" y="365" />
            </Array>
          </mxGeometry>
        </mxCell>
        <mxCell id="kZfyNyiyons217a6snOg-19" value="manage" style="text;strokeColor=none;align=center;fillColor=none;html=1;verticalAlign=middle;whiteSpace=wrap;rounded=0;" vertex="1" parent="1">
          <mxGeometry x="210" y="220" width="60" height="30" as="geometry" />
        </mxCell>
        <mxCell id="kZfyNyiyons217a6snOg-20" value="order book" style="text;strokeColor=none;align=center;fillColor=none;html=1;verticalAlign=middle;whiteSpace=wrap;rounded=0;" vertex="1" parent="1">
          <mxGeometry x="230" y="330" width="60" height="30" as="geometry" />
        </mxCell>
        <mxCell id="kZfyNyiyons217a6snOg-23" style="edgeStyle=orthogonalEdgeStyle;rounded=0;orthogonalLoop=1;jettySize=auto;html=1;exitX=-0.02;exitY=0.813;exitDx=0;exitDy=0;entryX=1;entryY=0.75;entryDx=0;entryDy=0;exitPerimeter=0;" edge="1" parent="1" source="kZfyNyiyons217a6snOg-9" target="kZfyNyiyons217a6snOg-1">
          <mxGeometry relative="1" as="geometry">
            <mxPoint x="190" y="450.02" as="sourcePoint" />
            <mxPoint x="330" y="450" as="targetPoint" />
            <Array as="points">
              <mxPoint x="327" y="378" />
              <mxPoint x="260" y="378" />
            </Array>
          </mxGeometry>
        </mxCell>
        <mxCell id="kZfyNyiyons217a6snOg-24" value="allow order" style="text;strokeColor=none;align=center;fillColor=none;html=1;verticalAlign=middle;whiteSpace=wrap;rounded=0;" vertex="1" parent="1">
          <mxGeometry x="230" y="380" width="70" height="30" as="geometry" />
        </mxCell>
        <mxCell id="kZfyNyiyons217a6snOg-25" value="update information" style="text;strokeColor=none;align=center;fillColor=none;html=1;verticalAlign=middle;whiteSpace=wrap;rounded=0;" vertex="1" parent="1">
          <mxGeometry x="490" y="220" width="70" height="30" as="geometry" />
        </mxCell>
        <mxCell id="kZfyNyiyons217a6snOg-26" value="update information" style="text;strokeColor=none;align=center;fillColor=none;html=1;verticalAlign=middle;whiteSpace=wrap;rounded=0;" vertex="1" parent="1">
          <mxGeometry x="500" y="370" width="70" height="30" as="geometry" />
        </mxCell>
        <mxCell id="kZfyNyiyons217a6snOg-27" value="&lt;font style=&quot;font-size: 15px;&quot;&gt;&lt;b&gt;&lt;br&gt;DFD(context diagram, Level 0)&lt;br&gt;&lt;/b&gt;&lt;/font&gt;" style="text;strokeColor=none;align=center;fillColor=none;html=1;verticalAlign=middle;whiteSpace=wrap;rounded=0;" vertex="1" parent="1">
          <mxGeometry x="287" y="130" width="246" height="30" as="geometry" />
        </mxCell>
        <mxCell id="kZfyNyiyons217a6snOg-33" style="edgeStyle=orthogonalEdgeStyle;rounded=0;orthogonalLoop=1;jettySize=auto;html=1;exitX=1;exitY=0.5;exitDx=0;exitDy=0;entryX=-0.011;entryY=0.296;entryDx=0;entryDy=0;entryPerimeter=0;fontSize=15;" edge="1" parent="1" source="kZfyNyiyons217a6snOg-28" target="kZfyNyiyons217a6snOg-31">
          <mxGeometry relative="1" as="geometry" />
        </mxCell>
        <mxCell id="kZfyNyiyons217a6snOg-28" value="Librarian" style="rounded=0;whiteSpace=wrap;html=1;fillColor=#ffe6cc;strokeColor=#d79b00;" vertex="1" parent="1">
          <mxGeometry x="90" y="510" width="100" height="50" as="geometry" />
        </mxCell>
        <mxCell id="kZfyNyiyons217a6snOg-30" value="1" style="swimlane;childLayout=stackLayout;horizontal=1;startSize=18;horizontalStack=0;rounded=1;fontSize=14;fontStyle=0;strokeWidth=2;resizeParent=0;resizeLast=1;shadow=0;dashed=0;align=center;fillColor=#d5e8d4;strokeColor=#82b366;" vertex="1" parent="1">
          <mxGeometry x="300" y="502.5" width="114" height="65" as="geometry">
            <mxRectangle x="314" y="502.5" width="50" height="30" as="alternateBounds" />
          </mxGeometry>
        </mxCell>
        <mxCell id="kZfyNyiyons217a6snOg-31" value="manage book" style="text;html=1;align=center;verticalAlign=middle;resizable=0;points=[];autosize=1;strokeColor=none;fillColor=none;" vertex="1" parent="kZfyNyiyons217a6snOg-30">
          <mxGeometry y="18" width="114" height="47" as="geometry" />
        </mxCell>
        <mxCell id="kZfyNyiyons217a6snOg-32" value="&lt;div style=&quot;&quot;&gt;book information&lt;/div&gt;" style="strokeWidth=2;html=1;shape=mxgraph.flowchart.annotation_1;align=center;pointerEvents=1;" vertex="1" parent="1">
          <mxGeometry x="533" y="625" width="140" height="50" as="geometry" />
        </mxCell>
        <mxCell id="kZfyNyiyons217a6snOg-34" value="add/delete&lt;br&gt;book" style="text;strokeColor=none;align=center;fillColor=none;html=1;verticalAlign=middle;whiteSpace=wrap;rounded=0;" vertex="1" parent="1">
          <mxGeometry x="205" y="500" width="70" height="30" as="geometry" />
        </mxCell>
        <mxCell id="kZfyNyiyons217a6snOg-35" style="edgeStyle=orthogonalEdgeStyle;rounded=0;orthogonalLoop=1;jettySize=auto;html=1;exitX=1;exitY=0.5;exitDx=0;exitDy=0;fontSize=15;" edge="1" parent="1" target="kZfyNyiyons217a6snOg-32">
          <mxGeometry relative="1" as="geometry">
            <mxPoint x="414" y="530.59" as="sourcePoint" />
            <mxPoint x="522.7460000000001" y="530.0020000000001" as="targetPoint" />
          </mxGeometry>
        </mxCell>
        <mxCell id="kZfyNyiyons217a6snOg-36" value="update information" style="text;strokeColor=none;align=center;fillColor=none;html=1;verticalAlign=middle;whiteSpace=wrap;rounded=0;" vertex="1" parent="1">
          <mxGeometry x="480" y="500" width="70" height="30" as="geometry" />
        </mxCell>
        <mxCell id="kZfyNyiyons217a6snOg-57" style="edgeStyle=orthogonalEdgeStyle;rounded=0;orthogonalLoop=1;jettySize=auto;html=1;exitX=0.5;exitY=1;exitDx=0;exitDy=0;fontSize=15;" edge="1" parent="1" source="kZfyNyiyons217a6snOg-37">
          <mxGeometry relative="1" as="geometry">
            <mxPoint x="300" y="860" as="targetPoint" />
            <Array as="points">
              <mxPoint x="140" y="860" />
            </Array>
          </mxGeometry>
        </mxCell>
        <mxCell id="kZfyNyiyons217a6snOg-37" value="Student" style="rounded=0;whiteSpace=wrap;html=1;fillColor=#ffe6cc;strokeColor=#d79b00;" vertex="1" parent="1">
          <mxGeometry x="90" y="610" width="100" height="80" as="geometry" />
        </mxCell>
        <mxCell id="kZfyNyiyons217a6snOg-46" style="edgeStyle=orthogonalEdgeStyle;rounded=0;orthogonalLoop=1;jettySize=auto;html=1;exitX=0;exitY=0.75;exitDx=0;exitDy=0;entryX=1;entryY=0.75;entryDx=0;entryDy=0;fontSize=15;" edge="1" parent="1" source="kZfyNyiyons217a6snOg-39" target="kZfyNyiyons217a6snOg-37">
          <mxGeometry relative="1" as="geometry" />
        </mxCell>
        <mxCell id="kZfyNyiyons217a6snOg-52" style="edgeStyle=orthogonalEdgeStyle;rounded=0;orthogonalLoop=1;jettySize=auto;html=1;exitX=1;exitY=0.5;exitDx=0;exitDy=0;fontSize=15;" edge="1" parent="1" source="kZfyNyiyons217a6snOg-39" target="kZfyNyiyons217a6snOg-32">
          <mxGeometry relative="1" as="geometry" />
        </mxCell>
        <mxCell id="kZfyNyiyons217a6snOg-55" style="edgeStyle=orthogonalEdgeStyle;rounded=0;orthogonalLoop=1;jettySize=auto;html=1;exitX=0.5;exitY=1;exitDx=0;exitDy=0;fontSize=15;entryX=0;entryY=0.5;entryDx=0;entryDy=0;entryPerimeter=0;" edge="1" parent="1" source="kZfyNyiyons217a6snOg-39" target="kZfyNyiyons217a6snOg-54">
          <mxGeometry relative="1" as="geometry">
            <mxPoint x="357" y="790" as="targetPoint" />
          </mxGeometry>
        </mxCell>
        <mxCell id="kZfyNyiyons217a6snOg-39" value="2" style="swimlane;childLayout=stackLayout;horizontal=1;startSize=18;horizontalStack=0;rounded=1;fontSize=14;fontStyle=0;strokeWidth=2;resizeParent=0;resizeLast=1;shadow=0;dashed=0;align=center;fillColor=#d5e8d4;strokeColor=#82b366;" vertex="1" parent="1">
          <mxGeometry x="300" y="610" width="122" height="80" as="geometry">
            <mxRectangle x="314" y="502.5" width="50" height="30" as="alternateBounds" />
          </mxGeometry>
        </mxCell>
        <mxCell id="kZfyNyiyons217a6snOg-40" value="manage book order" style="text;html=1;align=center;verticalAlign=middle;resizable=0;points=[];autosize=1;strokeColor=none;fillColor=none;" vertex="1" parent="kZfyNyiyons217a6snOg-39">
          <mxGeometry y="18" width="122" height="62" as="geometry" />
        </mxCell>
        <mxCell id="kZfyNyiyons217a6snOg-43" style="edgeStyle=orthogonalEdgeStyle;rounded=0;orthogonalLoop=1;jettySize=auto;html=1;exitX=1;exitY=0.5;exitDx=0;exitDy=0;fontSize=15;" edge="1" parent="1" target="kZfyNyiyons217a6snOg-40">
          <mxGeometry relative="1" as="geometry">
            <mxPoint x="190" y="650.61" as="sourcePoint" />
            <mxPoint x="299.5440000000001" y="650.0019999999998" as="targetPoint" />
            <Array as="points">
              <mxPoint x="260" y="650" />
              <mxPoint x="260" y="650" />
            </Array>
          </mxGeometry>
        </mxCell>
        <mxCell id="kZfyNyiyons217a6snOg-45" style="edgeStyle=orthogonalEdgeStyle;rounded=0;orthogonalLoop=1;jettySize=auto;html=1;exitX=1;exitY=0.5;exitDx=0;exitDy=0;fontSize=15;" edge="1" parent="1">
          <mxGeometry relative="1" as="geometry">
            <mxPoint x="190" y="634.76" as="sourcePoint" />
            <mxPoint x="300" y="634.7690476190476" as="targetPoint" />
            <Array as="points">
              <mxPoint x="270" y="634.15" />
              <mxPoint x="270" y="634.15" />
            </Array>
          </mxGeometry>
        </mxCell>
        <mxCell id="kZfyNyiyons217a6snOg-47" value="order book" style="text;strokeColor=none;align=center;fillColor=none;html=1;verticalAlign=middle;whiteSpace=wrap;rounded=0;" vertex="1" parent="1">
          <mxGeometry x="210" y="610" width="80" height="30" as="geometry" />
        </mxCell>
        <mxCell id="kZfyNyiyons217a6snOg-48" value="return book" style="text;strokeColor=none;align=center;fillColor=none;html=1;verticalAlign=middle;whiteSpace=wrap;rounded=0;" vertex="1" parent="1">
          <mxGeometry x="207" y="630" width="80" height="30" as="geometry" />
        </mxCell>
        <mxCell id="kZfyNyiyons217a6snOg-49" value="allow order" style="text;strokeColor=none;align=center;fillColor=none;html=1;verticalAlign=middle;whiteSpace=wrap;rounded=0;" vertex="1" parent="1">
          <mxGeometry x="208" y="647" width="80" height="30" as="geometry" />
        </mxCell>
        <mxCell id="kZfyNyiyons217a6snOg-53" value="update information" style="text;strokeColor=none;align=center;fillColor=none;html=1;verticalAlign=middle;whiteSpace=wrap;rounded=0;" vertex="1" parent="1">
          <mxGeometry x="430" y="617" width="80" height="30" as="geometry" />
        </mxCell>
        <mxCell id="kZfyNyiyons217a6snOg-54" value="&lt;div style=&quot;&quot;&gt;student information&lt;/div&gt;" style="strokeWidth=2;html=1;shape=mxgraph.flowchart.annotation_1;align=center;pointerEvents=1;" vertex="1" parent="1">
          <mxGeometry x="533" y="740" width="140" height="50" as="geometry" />
        </mxCell>
        <mxCell id="kZfyNyiyons217a6snOg-56" value="update information" style="text;strokeColor=none;align=center;fillColor=none;html=1;verticalAlign=middle;whiteSpace=wrap;rounded=0;" vertex="1" parent="1">
          <mxGeometry x="400" y="730" width="80" height="30" as="geometry" />
        </mxCell>
        <mxCell id="kZfyNyiyons217a6snOg-61" style="edgeStyle=orthogonalEdgeStyle;rounded=0;orthogonalLoop=1;jettySize=auto;html=1;exitX=1;exitY=0.5;exitDx=0;exitDy=0;entryX=0.5;entryY=1;entryDx=0;entryDy=0;entryPerimeter=0;fontSize=15;" edge="1" parent="1" source="kZfyNyiyons217a6snOg-58" target="kZfyNyiyons217a6snOg-54">
          <mxGeometry relative="1" as="geometry" />
        </mxCell>
        <mxCell id="kZfyNyiyons217a6snOg-58" value="3" style="swimlane;childLayout=stackLayout;horizontal=1;startSize=18;horizontalStack=0;rounded=1;fontSize=14;fontStyle=0;strokeWidth=2;resizeParent=0;resizeLast=1;shadow=0;dashed=0;align=center;fillColor=#d5e8d4;strokeColor=#82b366;" vertex="1" parent="1">
          <mxGeometry x="300" y="830" width="117" height="80" as="geometry">
            <mxRectangle x="314" y="502.5" width="50" height="30" as="alternateBounds" />
          </mxGeometry>
        </mxCell>
        <mxCell id="kZfyNyiyons217a6snOg-59" value="manage student&#39;s&lt;br&gt;information" style="text;html=1;align=center;verticalAlign=middle;resizable=0;points=[];autosize=1;strokeColor=none;fillColor=none;" vertex="1" parent="kZfyNyiyons217a6snOg-58">
          <mxGeometry y="18" width="117" height="62" as="geometry" />
        </mxCell>
        <mxCell id="kZfyNyiyons217a6snOg-60" value="sign up" style="text;strokeColor=none;align=center;fillColor=none;html=1;verticalAlign=middle;whiteSpace=wrap;rounded=0;" vertex="1" parent="1">
          <mxGeometry x="170" y="820" width="80" height="30" as="geometry" />
        </mxCell>
        <mxCell id="kZfyNyiyons217a6snOg-62" value="add new student" style="text;strokeColor=none;align=center;fillColor=none;html=1;verticalAlign=middle;whiteSpace=wrap;rounded=0;" vertex="1" parent="1">
          <mxGeometry x="470" y="830" width="80" height="30" as="geometry" />
        </mxCell>
        <mxCell id="kZfyNyiyons217a6snOg-63" value="&lt;font style=&quot;font-size: 15px;&quot;&gt;&lt;b&gt;DFD(Level 1 Diagram)&lt;br&gt;&lt;/b&gt;&lt;/font&gt;" style="text;strokeColor=none;align=center;fillColor=none;html=1;verticalAlign=middle;whiteSpace=wrap;rounded=0;" vertex="1" parent="1">
          <mxGeometry x="244" y="440" width="246" height="30" as="geometry" />
        </mxCell>
        <mxCell id="kZfyNyiyons217a6snOg-65" value="2 manage book order" style="swimlane;childLayout=stackLayout;horizontal=1;startSize=50;horizontalStack=0;rounded=1;fontSize=14;fontStyle=0;strokeWidth=2;resizeParent=0;resizeLast=1;shadow=0;dashed=0;align=center;fillColor=#d5e8d4;strokeColor=#82b366;" vertex="1" parent="1">
          <mxGeometry x="275" y="1020" width="285" height="210" as="geometry">
            <mxRectangle x="314" y="502.5" width="50" height="30" as="alternateBounds" />
          </mxGeometry>
        </mxCell>
        <mxCell id="kZfyNyiyons217a6snOg-73" style="edgeStyle=orthogonalEdgeStyle;rounded=0;orthogonalLoop=1;jettySize=auto;html=1;exitX=1;exitY=0.25;exitDx=0;exitDy=0;entryX=-0.014;entryY=0.459;entryDx=0;entryDy=0;entryPerimeter=0;fontSize=15;" edge="1" parent="1" source="kZfyNyiyons217a6snOg-67" target="kZfyNyiyons217a6snOg-72">
          <mxGeometry relative="1" as="geometry" />
        </mxCell>
        <mxCell id="kZfyNyiyons217a6snOg-67" value="Student" style="rounded=0;whiteSpace=wrap;html=1;fillColor=#ffe6cc;strokeColor=#d79b00;" vertex="1" parent="1">
          <mxGeometry x="90" y="1100" width="100" height="80" as="geometry" />
        </mxCell>
        <mxCell id="kZfyNyiyons217a6snOg-68" value="&lt;div style=&quot;&quot;&gt;book information&lt;/div&gt;" style="strokeWidth=2;html=1;shape=mxgraph.flowchart.annotation_1;align=center;pointerEvents=1;" vertex="1" parent="1">
          <mxGeometry x="640" y="1085" width="140" height="50" as="geometry" />
        </mxCell>
        <mxCell id="kZfyNyiyons217a6snOg-69" value="&lt;div style=&quot;&quot;&gt;student information&lt;/div&gt;" style="strokeWidth=2;html=1;shape=mxgraph.flowchart.annotation_1;align=center;pointerEvents=1;" vertex="1" parent="1">
          <mxGeometry x="640" y="1180" width="140" height="50" as="geometry" />
        </mxCell>
        <mxCell id="kZfyNyiyons217a6snOg-76" style="edgeStyle=orthogonalEdgeStyle;rounded=0;orthogonalLoop=1;jettySize=auto;html=1;exitX=1.001;exitY=0.42;exitDx=0;exitDy=0;entryX=0.002;entryY=0.313;entryDx=0;entryDy=0;entryPerimeter=0;fontSize=15;exitPerimeter=0;" edge="1" parent="1" source="kZfyNyiyons217a6snOg-72" target="kZfyNyiyons217a6snOg-69">
          <mxGeometry relative="1" as="geometry">
            <Array as="points">
              <mxPoint x="587" y="1118" />
              <mxPoint x="587" y="1196" />
            </Array>
          </mxGeometry>
        </mxCell>
        <mxCell id="kZfyNyiyons217a6snOg-80" style="edgeStyle=orthogonalEdgeStyle;rounded=0;orthogonalLoop=1;jettySize=auto;html=1;exitX=1;exitY=0.25;exitDx=0;exitDy=0;entryX=0.004;entryY=0.282;entryDx=0;entryDy=0;entryPerimeter=0;fontSize=15;" edge="1" parent="1" source="kZfyNyiyons217a6snOg-71" target="kZfyNyiyons217a6snOg-68">
          <mxGeometry relative="1" as="geometry" />
        </mxCell>
        <mxCell id="kZfyNyiyons217a6snOg-71" value="2.1" style="swimlane;childLayout=stackLayout;horizontal=1;startSize=18;horizontalStack=0;rounded=1;fontSize=14;fontStyle=0;strokeWidth=2;resizeParent=0;resizeLast=1;shadow=0;dashed=0;align=center;fillColor=#d5e8d4;strokeColor=#82b366;" vertex="1" parent="1">
          <mxGeometry x="310" y="1085" width="224" height="55" as="geometry">
            <mxRectangle x="314" y="502.5" width="50" height="30" as="alternateBounds" />
          </mxGeometry>
        </mxCell>
        <mxCell id="kZfyNyiyons217a6snOg-72" value="send information to database" style="text;html=1;align=center;verticalAlign=middle;resizable=0;points=[];autosize=1;strokeColor=none;fillColor=none;" vertex="1" parent="kZfyNyiyons217a6snOg-71">
          <mxGeometry y="18" width="224" height="37" as="geometry" />
        </mxCell>
        <mxCell id="kZfyNyiyons217a6snOg-75" value="order/return book" style="text;strokeColor=none;align=center;fillColor=none;html=1;verticalAlign=middle;whiteSpace=wrap;rounded=0;" vertex="1" parent="1">
          <mxGeometry x="200" y="1095" width="90" height="30" as="geometry" />
        </mxCell>
        <mxCell id="kZfyNyiyons217a6snOg-77" value="update" style="text;strokeColor=none;align=center;fillColor=none;html=1;verticalAlign=middle;whiteSpace=wrap;rounded=0;" vertex="1" parent="1">
          <mxGeometry x="540" y="1070" width="80" height="30" as="geometry" />
        </mxCell>
        <mxCell id="kZfyNyiyons217a6snOg-78" value="update" style="text;strokeColor=none;align=center;fillColor=none;html=1;verticalAlign=middle;whiteSpace=wrap;rounded=0;" vertex="1" parent="1">
          <mxGeometry x="560" y="1140" width="80" height="30" as="geometry" />
        </mxCell>
        <mxCell id="kZfyNyiyons217a6snOg-88" style="edgeStyle=orthogonalEdgeStyle;rounded=0;orthogonalLoop=1;jettySize=auto;html=1;exitX=0;exitY=0.5;exitDx=0;exitDy=0;entryX=1;entryY=0.75;entryDx=0;entryDy=0;fontSize=15;" edge="1" parent="1" source="kZfyNyiyons217a6snOg-82" target="kZfyNyiyons217a6snOg-67">
          <mxGeometry relative="1" as="geometry">
            <Array as="points">
              <mxPoint x="309" y="1160" />
            </Array>
          </mxGeometry>
        </mxCell>
        <mxCell id="kZfyNyiyons217a6snOg-82" value="2.2" style="swimlane;childLayout=stackLayout;horizontal=1;startSize=18;horizontalStack=0;rounded=1;fontSize=14;fontStyle=0;strokeWidth=2;resizeParent=0;resizeLast=1;shadow=0;dashed=0;align=center;fillColor=#d5e8d4;strokeColor=#82b366;" vertex="1" parent="1">
          <mxGeometry x="309" y="1150" width="224" height="55" as="geometry">
            <mxRectangle x="314" y="502.5" width="50" height="30" as="alternateBounds" />
          </mxGeometry>
        </mxCell>
        <mxCell id="kZfyNyiyons217a6snOg-83" value="allow order/return" style="text;html=1;align=center;verticalAlign=middle;resizable=0;points=[];autosize=1;strokeColor=none;fillColor=none;" vertex="1" parent="kZfyNyiyons217a6snOg-82">
          <mxGeometry y="18" width="224" height="37" as="geometry" />
        </mxCell>
        <mxCell id="kZfyNyiyons217a6snOg-89" value="success" style="text;strokeColor=none;align=center;fillColor=none;html=1;verticalAlign=middle;whiteSpace=wrap;rounded=0;" vertex="1" parent="1">
          <mxGeometry x="200" y="1135" width="90" height="30" as="geometry" />
        </mxCell>
        <mxCell id="kZfyNyiyons217a6snOg-90" value="&lt;font style=&quot;font-size: 15px;&quot;&gt;&lt;b&gt;DFD (Level 2 Diagram)&lt;br&gt;&lt;/b&gt;&lt;/font&gt;" style="text;strokeColor=none;align=center;fillColor=none;html=1;verticalAlign=middle;whiteSpace=wrap;rounded=0;" vertex="1" parent="1">
          <mxGeometry x="294.5" y="960" width="246" height="30" as="geometry" />
        </mxCell>
        <mxCell id="kZfyNyiyons217a6snOg-92" value="Student" style="swimlane;fontStyle=0;childLayout=stackLayout;horizontal=1;startSize=26;fillColor=none;horizontalStack=0;resizeParent=1;resizeParentMax=0;resizeLast=0;collapsible=1;marginBottom=0;fontSize=15;" vertex="1" parent="1">
          <mxGeometry x="-140" y="1580" width="140" height="104" as="geometry" />
        </mxCell>
        <mxCell id="kZfyNyiyons217a6snOg-93" value="CUHK ID" style="text;align=left;verticalAlign=top;spacingLeft=4;spacingRight=4;overflow=hidden;rotatable=0;points=[[0,0.5],[1,0.5]];portConstraint=eastwest;fontSize=15;fillColor=#dae8fc;strokeColor=#6c8ebf;" vertex="1" parent="kZfyNyiyons217a6snOg-92">
          <mxGeometry y="26" width="140" height="26" as="geometry" />
        </mxCell>
        <mxCell id="kZfyNyiyons217a6snOg-94" value="name    " style="text;strokeColor=none;fillColor=none;align=left;verticalAlign=top;spacingLeft=4;spacingRight=4;overflow=hidden;rotatable=0;points=[[0,0.5],[1,0.5]];portConstraint=eastwest;fontSize=15;" vertex="1" parent="kZfyNyiyons217a6snOg-92">
          <mxGeometry y="52" width="140" height="26" as="geometry" />
        </mxCell>
        <mxCell id="kZfyNyiyons217a6snOg-95" value="major" style="text;strokeColor=none;fillColor=none;align=left;verticalAlign=top;spacingLeft=4;spacingRight=4;overflow=hidden;rotatable=0;points=[[0,0.5],[1,0.5]];portConstraint=eastwest;fontSize=15;" vertex="1" parent="kZfyNyiyons217a6snOg-92">
          <mxGeometry y="78" width="140" height="26" as="geometry" />
        </mxCell>
        <mxCell id="kZfyNyiyons217a6snOg-96" value="book" style="swimlane;fontStyle=0;childLayout=stackLayout;horizontal=1;startSize=26;fillColor=none;horizontalStack=0;resizeParent=1;resizeParentMax=0;resizeLast=0;collapsible=1;marginBottom=0;fontSize=15;" vertex="1" parent="1">
          <mxGeometry x="660" y="1567" width="140" height="104" as="geometry" />
        </mxCell>
        <mxCell id="kZfyNyiyons217a6snOg-97" value="BOOK ID" style="text;align=left;verticalAlign=top;spacingLeft=4;spacingRight=4;overflow=hidden;rotatable=0;points=[[0,0.5],[1,0.5]];portConstraint=eastwest;fontSize=15;fillColor=#dae8fc;strokeColor=#6c8ebf;" vertex="1" parent="kZfyNyiyons217a6snOg-96">
          <mxGeometry y="26" width="140" height="26" as="geometry" />
        </mxCell>
        <mxCell id="kZfyNyiyons217a6snOg-98" value="name    " style="text;strokeColor=none;fillColor=none;align=left;verticalAlign=top;spacingLeft=4;spacingRight=4;overflow=hidden;rotatable=0;points=[[0,0.5],[1,0.5]];portConstraint=eastwest;fontSize=15;" vertex="1" parent="kZfyNyiyons217a6snOg-96">
          <mxGeometry y="52" width="140" height="26" as="geometry" />
        </mxCell>
        <mxCell id="kZfyNyiyons217a6snOg-99" value="type" style="text;strokeColor=none;fillColor=none;align=left;verticalAlign=top;spacingLeft=4;spacingRight=4;overflow=hidden;rotatable=0;points=[[0,0.5],[1,0.5]];portConstraint=eastwest;fontSize=15;" vertex="1" parent="kZfyNyiyons217a6snOg-96">
          <mxGeometry y="78" width="140" height="26" as="geometry" />
        </mxCell>
        <mxCell id="kZfyNyiyons217a6snOg-100" value="Librarian" style="swimlane;fontStyle=0;childLayout=stackLayout;horizontal=1;startSize=26;fillColor=none;horizontalStack=0;resizeParent=1;resizeParentMax=0;resizeLast=0;collapsible=1;marginBottom=0;fontSize=15;" vertex="1" parent="1">
          <mxGeometry x="-140" y="1790" width="140" height="104" as="geometry" />
        </mxCell>
        <mxCell id="kZfyNyiyons217a6snOg-101" value="Librarian ID" style="text;align=left;verticalAlign=top;spacingLeft=4;spacingRight=4;overflow=hidden;rotatable=0;points=[[0,0.5],[1,0.5]];portConstraint=eastwest;fontSize=15;fillColor=#dae8fc;strokeColor=#6c8ebf;" vertex="1" parent="kZfyNyiyons217a6snOg-100">
          <mxGeometry y="26" width="140" height="26" as="geometry" />
        </mxCell>
        <mxCell id="kZfyNyiyons217a6snOg-102" value="name    " style="text;strokeColor=none;fillColor=none;align=left;verticalAlign=top;spacingLeft=4;spacingRight=4;overflow=hidden;rotatable=0;points=[[0,0.5],[1,0.5]];portConstraint=eastwest;fontSize=15;" vertex="1" parent="kZfyNyiyons217a6snOg-100">
          <mxGeometry y="52" width="140" height="26" as="geometry" />
        </mxCell>
        <mxCell id="kZfyNyiyons217a6snOg-103" value="unit" style="text;strokeColor=none;fillColor=none;align=left;verticalAlign=top;spacingLeft=4;spacingRight=4;overflow=hidden;rotatable=0;points=[[0,0.5],[1,0.5]];portConstraint=eastwest;fontSize=15;" vertex="1" parent="kZfyNyiyons217a6snOg-100">
          <mxGeometry y="78" width="140" height="26" as="geometry" />
        </mxCell>
        <mxCell id="kZfyNyiyons217a6snOg-111" value="Stu - Book" style="swimlane;fontStyle=0;childLayout=stackLayout;horizontal=1;startSize=26;fillColor=none;horizontalStack=0;resizeParent=1;resizeParentMax=0;resizeLast=0;collapsible=1;marginBottom=0;fontSize=15;" vertex="1" parent="1">
          <mxGeometry x="277" y="1567" width="140" height="130" as="geometry" />
        </mxCell>
        <mxCell id="kZfyNyiyons217a6snOg-112" value="CUHK ID" style="text;align=left;verticalAlign=top;spacingLeft=4;spacingRight=4;overflow=hidden;rotatable=0;points=[[0,0.5],[1,0.5]];portConstraint=eastwest;fontSize=15;fillColor=#dae8fc;strokeColor=#6c8ebf;" vertex="1" parent="kZfyNyiyons217a6snOg-111">
          <mxGeometry y="26" width="140" height="26" as="geometry" />
        </mxCell>
        <mxCell id="kZfyNyiyons217a6snOg-113" value="BOOK ID" style="text;strokeColor=#6c8ebf;fillColor=#dae8fc;align=left;verticalAlign=top;spacingLeft=4;spacingRight=4;overflow=hidden;rotatable=0;points=[[0,0.5],[1,0.5]];portConstraint=eastwest;fontSize=15;" vertex="1" parent="kZfyNyiyons217a6snOg-111">
          <mxGeometry y="52" width="140" height="26" as="geometry" />
        </mxCell>
        <mxCell id="kZfyNyiyons217a6snOg-114" value="order date" style="text;strokeColor=none;fillColor=none;align=left;verticalAlign=top;spacingLeft=4;spacingRight=4;overflow=hidden;rotatable=0;points=[[0,0.5],[1,0.5]];portConstraint=eastwest;fontSize=15;" vertex="1" parent="kZfyNyiyons217a6snOg-111">
          <mxGeometry y="78" width="140" height="26" as="geometry" />
        </mxCell>
        <mxCell id="kZfyNyiyons217a6snOg-115" value="return date" style="text;strokeColor=none;fillColor=none;align=left;verticalAlign=top;spacingLeft=4;spacingRight=4;overflow=hidden;rotatable=0;points=[[0,0.5],[1,0.5]];portConstraint=eastwest;fontSize=15;" vertex="1" parent="kZfyNyiyons217a6snOg-111">
          <mxGeometry y="104" width="140" height="26" as="geometry" />
        </mxCell>
        <mxCell id="kZfyNyiyons217a6snOg-121" value="Lib - Book" style="swimlane;fontStyle=0;childLayout=stackLayout;horizontal=1;startSize=26;fillColor=none;horizontalStack=0;resizeParent=1;resizeParentMax=0;resizeLast=0;collapsible=1;marginBottom=0;fontSize=15;" vertex="1" parent="1">
          <mxGeometry x="277" y="1800" width="140" height="104" as="geometry" />
        </mxCell>
        <mxCell id="kZfyNyiyons217a6snOg-122" value="Librarian ID" style="text;align=left;verticalAlign=top;spacingLeft=4;spacingRight=4;overflow=hidden;rotatable=0;points=[[0,0.5],[1,0.5]];portConstraint=eastwest;fontSize=15;fillColor=#dae8fc;strokeColor=#6c8ebf;" vertex="1" parent="kZfyNyiyons217a6snOg-121">
          <mxGeometry y="26" width="140" height="26" as="geometry" />
        </mxCell>
        <mxCell id="kZfyNyiyons217a6snOg-123" value="BOOK ID" style="text;strokeColor=#6c8ebf;fillColor=#dae8fc;align=left;verticalAlign=top;spacingLeft=4;spacingRight=4;overflow=hidden;rotatable=0;points=[[0,0.5],[1,0.5]];portConstraint=eastwest;fontSize=15;" vertex="1" parent="kZfyNyiyons217a6snOg-121">
          <mxGeometry y="52" width="140" height="26" as="geometry" />
        </mxCell>
        <mxCell id="kZfyNyiyons217a6snOg-124" value="date of add" style="text;strokeColor=none;fillColor=none;align=left;verticalAlign=top;spacingLeft=4;spacingRight=4;overflow=hidden;rotatable=0;points=[[0,0.5],[1,0.5]];portConstraint=eastwest;fontSize=15;" vertex="1" parent="kZfyNyiyons217a6snOg-121">
          <mxGeometry y="78" width="140" height="26" as="geometry" />
        </mxCell>
        <mxCell id="kZfyNyiyons217a6snOg-133" value="order/return" style="rhombus;whiteSpace=wrap;html=1;fontSize=15;" vertex="1" parent="1">
          <mxGeometry x="85" y="1601" width="110" height="62" as="geometry" />
        </mxCell>
        <mxCell id="kZfyNyiyons217a6snOg-134" value="ordered by" style="rhombus;whiteSpace=wrap;html=1;fontSize=15;" vertex="1" parent="1">
          <mxGeometry x="490" y="1601" width="110" height="62" as="geometry" />
        </mxCell>
        <mxCell id="kZfyNyiyons217a6snOg-136" value="managed by" style="rhombus;whiteSpace=wrap;html=1;fontSize=15;" vertex="1" parent="1">
          <mxGeometry x="490" y="1811" width="110" height="62" as="geometry" />
        </mxCell>
        <mxCell id="kZfyNyiyons217a6snOg-144" value="" style="endArrow=none;html=1;rounded=0;fontSize=15;exitX=1.013;exitY=0.013;exitDx=0;exitDy=0;exitPerimeter=0;entryX=0;entryY=0.5;entryDx=0;entryDy=0;" edge="1" parent="1" source="kZfyNyiyons217a6snOg-94" target="kZfyNyiyons217a6snOg-133">
          <mxGeometry width="50" height="50" relative="1" as="geometry">
            <mxPoint x="290" y="1670" as="sourcePoint" />
            <mxPoint x="80" y="1632" as="targetPoint" />
          </mxGeometry>
        </mxCell>
        <mxCell id="kZfyNyiyons217a6snOg-145" value="" style="endArrow=none;html=1;rounded=0;fontSize=15;exitX=1.013;exitY=0.013;exitDx=0;exitDy=0;exitPerimeter=0;entryX=0;entryY=0.5;entryDx=0;entryDy=0;" edge="1" parent="1">
          <mxGeometry width="50" height="50" relative="1" as="geometry">
            <mxPoint x="194.99999999999972" y="1631.9079999999997" as="sourcePoint" />
            <mxPoint x="278.18" y="1631.57" as="targetPoint" />
          </mxGeometry>
        </mxCell>
        <mxCell id="kZfyNyiyons217a6snOg-146" value="" style="endArrow=none;html=1;rounded=0;fontSize=15;exitX=1.013;exitY=0.013;exitDx=0;exitDy=0;exitPerimeter=0;" edge="1" parent="1">
          <mxGeometry width="50" height="50" relative="1" as="geometry">
            <mxPoint x="416.81999999999954" y="1631.9079999999994" as="sourcePoint" />
            <mxPoint x="490" y="1632" as="targetPoint" />
          </mxGeometry>
        </mxCell>
        <mxCell id="kZfyNyiyons217a6snOg-147" value="" style="endArrow=none;html=1;rounded=0;fontSize=15;exitX=1.013;exitY=0.013;exitDx=0;exitDy=0;exitPerimeter=0;" edge="1" parent="1">
          <mxGeometry width="50" height="50" relative="1" as="geometry">
            <mxPoint x="599.9999999999998" y="1631.5679999999995" as="sourcePoint" />
            <mxPoint x="660" y="1632" as="targetPoint" />
          </mxGeometry>
        </mxCell>
        <mxCell id="kZfyNyiyons217a6snOg-151" value="add" style="rhombus;whiteSpace=wrap;html=1;fontSize=15;" vertex="1" parent="1">
          <mxGeometry x="83.82" y="1821" width="110" height="62" as="geometry" />
        </mxCell>
        <mxCell id="kZfyNyiyons217a6snOg-152" value="" style="endArrow=none;html=1;rounded=0;fontSize=15;exitX=1.013;exitY=0.013;exitDx=0;exitDy=0;exitPerimeter=0;entryX=0;entryY=0.5;entryDx=0;entryDy=0;" edge="1" parent="1" target="kZfyNyiyons217a6snOg-151">
          <mxGeometry width="50" height="50" relative="1" as="geometry">
            <mxPoint x="0.6399999999997092" y="1852.3379999999997" as="sourcePoint" />
            <mxPoint x="78.82" y="1852" as="targetPoint" />
          </mxGeometry>
        </mxCell>
        <mxCell id="kZfyNyiyons217a6snOg-153" value="" style="endArrow=none;html=1;rounded=0;fontSize=15;exitX=1.013;exitY=0.013;exitDx=0;exitDy=0;exitPerimeter=0;entryX=0;entryY=0.5;entryDx=0;entryDy=0;" edge="1" parent="1">
          <mxGeometry width="50" height="50" relative="1" as="geometry">
            <mxPoint x="193.81999999999954" y="1851.9079999999994" as="sourcePoint" />
            <mxPoint x="276.99999999999983" y="1851.5699999999997" as="targetPoint" />
          </mxGeometry>
        </mxCell>
        <mxCell id="kZfyNyiyons217a6snOg-154" value="" style="endArrow=none;html=1;rounded=0;fontSize=15;exitX=1.013;exitY=0.013;exitDx=0;exitDy=0;exitPerimeter=0;" edge="1" parent="1">
          <mxGeometry width="50" height="50" relative="1" as="geometry">
            <mxPoint x="416.8199999999997" y="1841.4779999999994" as="sourcePoint" />
            <mxPoint x="490" y="1841.57" as="targetPoint" />
          </mxGeometry>
        </mxCell>
        <mxCell id="kZfyNyiyons217a6snOg-155" value="" style="endArrow=none;html=1;rounded=0;fontSize=15;exitX=1.013;exitY=0.013;exitDx=0;exitDy=0;exitPerimeter=0;entryX=0.519;entryY=1.148;entryDx=0;entryDy=0;entryPerimeter=0;" edge="1" parent="1" target="kZfyNyiyons217a6snOg-99">
          <mxGeometry width="50" height="50" relative="1" as="geometry">
            <mxPoint x="600" y="1841.4779999999994" as="sourcePoint" />
            <mxPoint x="660" y="1841.91" as="targetPoint" />
          </mxGeometry>
        </mxCell>
        <mxCell id="kZfyNyiyons217a6snOg-156" value="&lt;b&gt;&lt;font style=&quot;font-size: 16px;&quot;&gt;Entities and Relationship&lt;/font&gt;&lt;/b&gt;" style="text;whiteSpace=wrap;html=1;fontSize=15;" vertex="1" parent="1">
          <mxGeometry x="190" y="1460" width="258" height="40" as="geometry" />
        </mxCell>
      </root>
    </mxGraphModel>
  </diagram>
</mxfile>
